# This file uses centimeters as units for non-parametric coordinates.

v 0.748131 0.390400 -0.243083
v 0.636399 0.390400 -0.462371
v 0.462371 0.390400 -0.636399
v 0.243083 0.390400 -0.748131
v 0.000000 0.390400 -0.786632
v -0.243083 0.390400 -0.748131
v -0.462371 0.390400 -0.636398
v -0.636398 0.390400 -0.462371
v -0.748131 0.390400 -0.243083
v -0.786632 0.390400 0.000000
v -0.748131 0.390400 0.243083
v -0.636398 0.390400 0.462370
v -0.462370 0.390400 0.636398
v -0.243083 0.390400 0.748131
v -0.000000 0.390400 0.786632
v 0.243083 0.390400 0.748131
v 0.462370 0.390400 0.636398
v 0.636398 0.390400 0.462371
v 0.748131 0.390400 0.243083
v 0.786632 0.390400 0.000000
v 1.216949 0.915809 -0.395411
v 1.035199 0.915809 -0.752116
v 0.752116 0.915809 -1.035199
v 0.395411 0.915809 -1.216949
v 0.000000 0.915809 -1.279576
v -0.395411 0.915809 -1.216949
v -0.752116 0.915809 -1.035198
v -1.035198 0.915809 -0.752116
v -1.216949 0.915809 -0.395411
v -1.279575 0.915809 0.000000
v -1.216949 0.915809 0.395411
v -1.035198 0.915809 0.752116
v -0.752116 0.915809 1.035198
v -0.395411 0.915809 1.216949
v -0.000000 0.915809 1.279575
v 0.395410 0.915809 1.216948
v 0.752115 0.915809 1.035198
v 1.035198 0.915809 0.752116
v 1.216948 0.915809 0.395411
v 1.279575 0.915809 0.000000
v 1.182647 4.632616 -0.384265
v 1.006020 4.632616 -0.730915
v 0.730916 4.632616 -1.006019
v 0.384265 4.632616 -1.182646
v -0.000000 4.632616 -1.243508
v -0.384266 4.632616 -1.182646
v -0.730916 4.632616 -1.006019
v -1.006020 4.632616 -0.730915
v -1.182647 4.632616 -0.384264
v -1.243509 4.632616 0.000000
v -1.182647 4.632616 0.384264
v -1.006020 4.632616 0.730915
v -0.730916 4.632616 1.006019
v -0.384265 4.632616 1.182646
v -0.000000 4.632616 1.243508
v 0.384265 4.632616 1.182646
v 0.730916 4.632616 1.006019
v 1.006019 4.632616 0.730915
v 1.182647 4.632616 0.384264
v 1.243508 4.632616 0.000000
v 0.706923 5.066325 -0.229693
v 0.601345 5.066325 -0.436902
v 0.436903 5.066325 -0.601344
v 0.229693 5.066325 -0.706923
v -0.000000 5.066325 -0.743303
v -0.229693 5.066325 -0.706923
v -0.436903 5.066325 -0.601344
v -0.601345 5.066325 -0.436902
v -0.706923 5.066325 -0.229693
v -0.743303 5.066325 0.000000
v -0.706923 5.066325 0.229693
v -0.601345 5.066325 0.436902
v -0.436903 5.066325 0.601344
v -0.229693 5.066325 0.706923
v -0.000000 5.066325 0.743303
v 0.229693 5.066325 0.706923
v 0.436902 5.066325 0.601344
v 0.601345 5.066325 0.436902
v 0.706923 5.066325 0.229693
v 0.743303 5.066325 -0.000000
v 0.000000 0.084117 0.000000
v -0.000000 5.308913 0.000000
v 1.412623 4.085732 -0.458988
v 1.412623 1.558885 -0.458989
v 1.201649 4.085732 -0.873048
v 1.201649 1.558885 -0.873049
v 0.873049 4.085732 -1.201648
v 0.873049 1.558885 -1.201649
v 0.458989 4.085732 -1.412622
v 0.458989 1.558885 -1.412622
v -0.000000 4.085732 -1.485318
v -0.000000 1.558885 -1.485319
v -0.458989 4.085732 -1.412622
v -0.458989 1.558885 -1.412622
v -0.873049 4.085732 -1.201648
v -0.873049 1.558885 -1.201648
v -1.201648 4.085732 -0.873048
v -1.201648 1.558885 -0.873048
v -1.412622 4.085732 -0.458988
v -1.412622 1.558885 -0.458989
v -1.485319 4.085732 0.000000
v -1.485319 1.558885 0.000000
v -1.412622 4.085732 0.458988
v -1.412622 1.558885 0.458989
v -1.201648 4.085732 0.873048
v -1.201648 1.558885 0.873048
v -0.873048 4.085732 1.201647
v -0.873048 1.558885 1.201648
v -0.458989 4.085732 1.412621
v -0.458989 1.558885 1.412622
v -0.000000 4.085732 1.485318
v -0.000000 1.558885 1.485318
v 0.458989 4.085732 1.412621
v 0.458989 1.558885 1.412622
v 0.873048 4.085732 1.201647
v 0.873048 1.558885 1.201648
v 1.201648 4.085732 0.873048
v 1.201648 1.558885 0.873048
v 1.412622 4.085732 0.458988
v 1.412622 1.558885 0.458989
v 1.485318 4.085732 0.000000
v 1.485318 1.558885 0.000000
vt 0.000000 0.100000
vt 0.050000 0.100000
vt 0.100000 0.100000
vt 0.150000 0.100000
vt 0.200000 0.100000
vt 0.250000 0.100000
vt 0.300000 0.100000
vt 0.350000 0.100000
vt 0.400000 0.100000
vt 0.450000 0.100000
vt 0.500000 0.100000
vt 0.550000 0.100000
vt 0.600000 0.100000
vt 0.650000 0.100000
vt 0.700000 0.100000
vt 0.750000 0.100000
vt 0.800000 0.100000
vt 0.850000 0.100000
vt 0.900000 0.100000
vt 0.950000 0.100000
vt 1.000000 0.100000
vt 0.000000 0.300000
vt 0.050000 0.300000
vt 0.100000 0.300000
vt 0.150000 0.300000
vt 0.200000 0.300000
vt 0.250000 0.300000
vt 0.300000 0.300000
vt 0.350000 0.300000
vt 0.400000 0.300000
vt 0.450000 0.300000
vt 0.500000 0.300000
vt 0.550000 0.300000
vt 0.600000 0.300000
vt 0.650000 0.300000
vt 0.700000 0.300000
vt 0.750000 0.300000
vt 0.800000 0.300000
vt 0.850000 0.300000
vt 0.900000 0.300000
vt 0.950000 0.300000
vt 1.000000 0.300000
vt 0.000000 0.700000
vt 0.050000 0.700000
vt 0.100000 0.700000
vt 0.150000 0.700000
vt 0.200000 0.700000
vt 0.250000 0.700000
vt 0.300000 0.700000
vt 0.350000 0.700000
vt 0.400000 0.700000
vt 0.450000 0.700000
vt 0.500000 0.700000
vt 0.550000 0.700000
vt 0.600000 0.700000
vt 0.650000 0.700000
vt 0.700000 0.700000
vt 0.750000 0.700000
vt 0.800000 0.700000
vt 0.850000 0.700000
vt 0.900000 0.700000
vt 0.950000 0.700000
vt 1.000000 0.700000
vt 0.000000 0.900000
vt 0.050000 0.900000
vt 0.100000 0.900000
vt 0.150000 0.900000
vt 0.200000 0.900000
vt 0.250000 0.900000
vt 0.300000 0.900000
vt 0.350000 0.900000
vt 0.400000 0.900000
vt 0.450000 0.900000
vt 0.500000 0.900000
vt 0.550000 0.900000
vt 0.600000 0.900000
vt 0.650000 0.900000
vt 0.700000 0.900000
vt 0.750000 0.900000
vt 0.800000 0.900000
vt 0.850000 0.900000
vt 0.900000 0.900000
vt 0.950000 0.900000
vt 1.000000 0.900000
vt 0.025000 0.000000
vt 0.075000 0.000000
vt 0.125000 0.000000
vt 0.175000 0.000000
vt 0.225000 0.000000
vt 0.275000 0.000000
vt 0.325000 0.000000
vt 0.375000 0.000000
vt 0.425000 0.000000
vt 0.475000 0.000000
vt 0.525000 0.000000
vt 0.575000 0.000000
vt 0.625000 0.000000
vt 0.675000 0.000000
vt 0.725000 0.000000
vt 0.775000 0.000000
vt 0.825000 0.000000
vt 0.875000 0.000000
vt 0.925000 0.000000
vt 0.975000 0.000000
vt 0.025000 1.000000
vt 0.075000 1.000000
vt 0.125000 1.000000
vt 0.175000 1.000000
vt 0.225000 1.000000
vt 0.275000 1.000000
vt 0.325000 1.000000
vt 0.375000 1.000000
vt 0.425000 1.000000
vt 0.475000 1.000000
vt 0.525000 1.000000
vt 0.575000 1.000000
vt 0.625000 1.000000
vt 0.675000 1.000000
vt 0.725000 1.000000
vt 0.775000 1.000000
vt 0.825000 1.000000
vt 0.875000 1.000000
vt 0.925000 1.000000
vt 0.975000 1.000000
vt 0.000000 0.519998
vt 0.000000 0.480002
vt 0.050000 0.519998
vt 0.100000 0.519998
vt 0.150000 0.519998
vt 0.200000 0.519998
vt 0.250000 0.519998
vt 0.300000 0.519998
vt 0.350000 0.519998
vt 0.400000 0.519998
vt 0.450000 0.519998
vt 0.500000 0.519998
vt 0.550000 0.519998
vt 0.600000 0.519998
vt 0.650000 0.519998
vt 0.700000 0.519998
vt 0.750000 0.519998
vt 0.800000 0.519998
vt 0.850000 0.519998
vt 0.900000 0.519998
vt 0.950000 0.519998
vt 1.000000 0.519998
vt 1.000000 0.480002
vt 0.999582 0.499163
vt 0.950401 0.500000
vt 0.000401 0.500000
vt 0.050000 0.480002
vt 0.049582 0.499163
vt 0.050401 0.500000
vt 0.100000 0.480002
vt 0.099582 0.499163
vt 0.100401 0.500000
vt 0.150000 0.480002
vt 0.149582 0.499163
vt 0.150401 0.500000
vt 0.200000 0.480002
vt 0.199582 0.499163
vt 0.200401 0.500000
vt 0.250000 0.480002
vt 0.249582 0.499163
vt 0.250401 0.500000
vt 0.300000 0.480002
vt 0.299582 0.499163
vt 0.300401 0.500000
vt 0.350000 0.480002
vt 0.349582 0.499163
vt 0.350401 0.500000
vt 0.400000 0.480002
vt 0.399582 0.499163
vt 0.400401 0.500000
vt 0.450000 0.480002
vt 0.449582 0.499163
vt 0.450401 0.500000
vt 0.500000 0.480002
vt 0.499582 0.499163
vt 0.500401 0.500000
vt 0.550000 0.480002
vt 0.549582 0.499163
vt 0.550401 0.500000
vt 0.600000 0.480002
vt 0.599582 0.499163
vt 0.600401 0.500000
vt 0.650000 0.480002
vt 0.649582 0.499163
vt 0.650401 0.500000
vt 0.700000 0.480002
vt 0.699582 0.499163
vt 0.700401 0.500000
vt 0.750000 0.480002
vt 0.749582 0.499163
vt 0.750401 0.500000
vt 0.800000 0.480002
vt 0.799582 0.499163
vt 0.800401 0.500000
vt 0.850000 0.480002
vt 0.849582 0.499163
vt 0.850401 0.500000
vt 0.900000 0.480002
vt 0.899582 0.499163
vt 0.900401 0.500000
vt 0.950000 0.480002
vt 0.949582 0.499163
vn 0.517545 -0.768607 -0.376019
vn 0.608411 -0.768607 -0.197684
vn -0.000000 -1.000000 0.000000
vn 0.376018 -0.768607 -0.517545
vn 0.197685 -0.768607 -0.608411
vn -0.000000 -0.768607 -0.639721
vn -0.197685 -0.768607 -0.608411
vn -0.376019 -0.768607 -0.517545
vn -0.517545 -0.768607 -0.376019
vn -0.608411 -0.768607 -0.197685
vn -0.639721 -0.768607 0.000000
vn -0.608411 -0.768607 0.197685
vn -0.517545 -0.768607 0.376019
vn -0.376019 -0.768607 0.517545
vn -0.197685 -0.768607 0.608411
vn 0.000000 -0.768607 0.639721
vn 0.197685 -0.768607 0.608411
vn 0.376019 -0.768607 0.517545
vn 0.517545 -0.768607 0.376019
vn 0.608411 -0.768607 0.197685
vn 0.639721 -0.768607 0.000001
vn 0.710807 -0.477547 -0.516432
vn 0.835604 -0.477547 -0.271503
vn 0.516432 -0.477547 -0.710807
vn 0.271504 -0.477547 -0.835604
vn -0.000000 -0.477547 -0.878606
vn -0.271504 -0.477547 -0.835604
vn -0.516432 -0.477547 -0.710807
vn -0.710808 -0.477547 -0.516432
vn -0.835604 -0.477547 -0.271504
vn -0.878606 -0.477547 0.000000
vn -0.835604 -0.477547 0.271504
vn -0.710807 -0.477547 0.516432
vn -0.516432 -0.477547 0.710807
vn -0.271504 -0.477547 0.835604
vn 0.000000 -0.477547 0.878606
vn 0.271504 -0.477547 0.835604
vn 0.516432 -0.477547 0.710808
vn 0.710808 -0.477547 0.516432
vn 0.835604 -0.477547 0.271504
vn 0.878606 -0.477547 0.000001
vn 0.807553 -0.060128 -0.586722
vn 0.949336 -0.060128 -0.308457
vn 0.586722 -0.060128 -0.807553
vn 0.308458 -0.060128 -0.949336
vn -0.000000 -0.060128 -0.998191
vn -0.308458 -0.060128 -0.949336
vn -0.586722 -0.060128 -0.807553
vn -0.807553 -0.060128 -0.586722
vn -0.949336 -0.060128 -0.308458
vn -0.998191 -0.060128 0.000000
vn -0.949336 -0.060128 0.308458
vn -0.807553 -0.060128 0.586722
vn -0.586722 -0.060128 0.807553
vn -0.308458 -0.060128 0.949336
vn 0.000000 -0.060128 0.998191
vn 0.308458 -0.060128 0.949336
vn 0.586722 -0.060128 0.807553
vn 0.807553 -0.060128 0.586722
vn 0.949336 -0.060128 0.308458
vn 0.998191 -0.060128 0.000001
vn 0.666591 0.566660 -0.484307
vn 0.783625 0.566660 -0.254615
vn 0.948629 0.071414 -0.308227
vn 0.806951 0.071415 -0.586285
vn 0.484307 0.566660 -0.666591
vn 0.586284 0.071415 -0.806951
vn 0.254615 0.566660 -0.783625
vn 0.308228 0.071415 -0.948628
vn -0.000000 0.566660 -0.823952
vn -0.000000 0.071415 -0.997447
vn -0.254615 0.566660 -0.783625
vn -0.308228 0.071415 -0.948628
vn -0.484307 0.566660 -0.666591
vn -0.586285 0.071415 -0.806951
vn -0.666591 0.566659 -0.484307
vn -0.806951 0.071414 -0.586284
vn -0.783625 0.566660 -0.254615
vn -0.948628 0.071414 -0.308228
vn -0.823952 0.566660 -0.000000
vn -0.997447 0.071414 0.000000
vn -0.783625 0.566660 0.254615
vn -0.948628 0.071414 0.308228
vn -0.666591 0.566660 0.484307
vn -0.806951 0.071414 0.586285
vn -0.484307 0.566659 0.666591
vn -0.586284 0.071415 0.806952
vn -0.254615 0.566659 0.783625
vn -0.308228 0.071415 0.948628
vn 0.000000 0.566659 0.823952
vn 0.000000 0.071415 0.997447
vn 0.254615 0.566659 0.783625
vn 0.308228 0.071415 0.948628
vn 0.484307 0.566659 0.666591
vn 0.586284 0.071415 0.806951
vn 0.666591 0.566659 0.484307
vn 0.806951 0.071415 0.586285
vn 0.783625 0.566659 0.254615
vn 0.948628 0.071414 0.308228
vn 0.823952 0.566660 0.000001
vn 0.997447 0.071414 0.000001
vn 0.460556 0.822145 -0.334614
vn 0.541416 0.822145 -0.175917
vn 0.334613 0.822145 -0.460556
vn 0.175917 0.822145 -0.541416
vn -0.000000 0.822145 -0.569278
vn -0.175917 0.822145 -0.541416
vn -0.334614 0.822145 -0.460556
vn -0.460556 0.822145 -0.334614
vn -0.541416 0.822145 -0.175917
vn -0.569278 0.822145 0.000000
vn -0.541416 0.822145 0.175917
vn -0.460556 0.822145 0.334614
vn -0.334614 0.822145 0.460556
vn -0.175917 0.822145 0.541416
vn 0.000000 0.822145 0.569279
vn 0.175917 0.822145 0.541416
vn 0.334614 0.822145 0.460556
vn 0.460556 0.822145 0.334614
vn 0.541416 0.822145 0.175917
vn 0.569279 0.822145 0.000000
vn -0.000000 1.000000 -0.000000
f 2/2/1 1/1/2 81/85/3
f 3/3/4 2/2/1 81/86/3
f 4/4/5 3/3/4 81/87/3
f 5/5/6 4/4/5 81/88/3
f 6/6/7 5/5/6 81/89/3
f 7/7/8 6/6/7 81/90/3
f 8/8/9 7/7/8 81/91/3
f 9/9/10 8/8/9 81/92/3
f 10/10/11 9/9/10 81/93/3
f 11/11/12 10/10/11 81/94/3
f 12/12/13 11/11/12 81/95/3
f 13/13/14 12/12/13 81/96/3
f 14/14/15 13/13/14 81/97/3
f 15/15/16 14/14/15 81/98/3
f 16/16/17 15/15/16 81/99/3
f 17/17/18 16/16/17 81/100/3
f 18/18/19 17/17/18 81/101/3
f 19/19/20 18/18/19 81/102/3
f 20/20/21 19/19/20 81/103/3
f 1/21/2 20/20/21 81/104/3
f 2/2/1 22/23/22 21/22/23 1/1/2
f 3/3/4 23/24/24 22/23/22 2/2/1
f 4/4/5 24/25/25 23/24/24 3/3/4
f 5/5/6 25/26/26 24/25/25 4/4/5
f 6/6/7 26/27/27 25/26/26 5/5/6
f 7/7/8 27/28/28 26/27/27 6/6/7
f 8/8/9 28/29/29 27/28/28 7/7/8
f 9/9/10 29/30/30 28/29/29 8/8/9
f 10/10/11 30/31/31 29/30/30 9/9/10
f 11/11/12 31/32/32 30/31/31 10/10/11
f 12/12/13 32/33/33 31/32/32 11/11/12
f 13/13/14 33/34/34 32/33/33 12/12/13
f 14/14/15 34/35/35 33/34/34 13/13/14
f 15/15/16 35/36/36 34/35/35 14/14/15
f 16/16/17 36/37/37 35/36/36 15/15/16
f 17/17/18 37/38/38 36/37/37 16/16/17
f 18/18/19 38/39/39 37/38/38 17/17/18
f 19/19/20 39/40/40 38/39/39 18/18/19
f 20/20/21 40/41/41 39/40/40 19/19/20
f 1/21/2 21/42/23 40/41/41 20/20/21
f 22/23/22 86/151/42 84/126/43 21/22/23
f 23/24/24 88/154/44 86/151/42 22/23/22
f 24/25/25 90/157/45 88/154/44 23/24/24
f 25/26/26 92/160/46 90/157/45 24/25/25
f 26/27/27 94/163/47 92/160/46 25/26/26
f 27/28/28 96/166/48 94/163/47 26/27/27
f 28/29/29 98/169/49 96/166/48 27/28/28
f 29/30/30 100/172/50 98/169/49 28/29/29
f 30/31/31 102/175/51 100/172/50 29/30/30
f 31/32/32 104/178/52 102/175/51 30/31/31
f 32/33/33 106/181/53 104/178/52 31/32/32
f 33/34/34 108/184/54 106/181/53 32/33/33
f 34/35/35 110/187/55 108/184/54 33/34/34
f 35/36/36 112/190/56 110/187/55 34/35/35
f 36/37/37 114/193/57 112/190/56 35/36/36
f 37/38/38 116/196/58 114/193/57 36/37/37
f 38/39/39 118/199/59 116/196/58 37/38/38
f 39/40/40 120/202/60 118/199/59 38/39/39
f 40/41/41 122/205/61 120/202/60 39/40/40
f 21/42/23 84/147/43 122/205/61 40/41/41
f 42/44/62 41/43/63 83/125/64 85/127/65
f 43/45/66 42/44/62 85/127/65 87/128/67
f 44/46/68 43/45/66 87/128/67 89/129/69
f 45/47/70 44/46/68 89/129/69 91/130/71
f 46/48/72 45/47/70 91/130/71 93/131/73
f 47/49/74 46/48/72 93/131/73 95/132/75
f 48/50/76 47/49/74 95/132/75 97/133/77
f 49/51/78 48/50/76 97/133/77 99/134/79
f 50/52/80 49/51/78 99/134/79 101/135/81
f 51/53/82 50/52/80 101/135/81 103/136/83
f 52/54/84 51/53/82 103/136/83 105/137/85
f 53/55/86 52/54/84 105/137/85 107/138/87
f 54/56/88 53/55/86 107/138/87 109/139/89
f 55/57/90 54/56/88 109/139/89 111/140/91
f 56/58/92 55/57/90 111/140/91 113/141/93
f 57/59/94 56/58/92 113/141/93 115/142/95
f 58/60/96 57/59/94 115/142/95 117/143/97
f 59/61/98 58/60/96 117/143/97 119/144/99
f 60/62/100 59/61/98 119/144/99 121/145/101
f 41/63/63 60/62/100 121/145/101 83/146/64
f 42/44/62 62/65/102 61/64/103 41/43/63
f 43/45/66 63/66/104 62/65/102 42/44/62
f 44/46/68 64/67/105 63/66/104 43/45/66
f 45/47/70 65/68/106 64/67/105 44/46/68
f 46/48/72 66/69/107 65/68/106 45/47/70
f 47/49/74 67/70/108 66/69/107 46/48/72
f 48/50/76 68/71/109 67/70/108 47/49/74
f 49/51/78 69/72/110 68/71/109 48/50/76
f 50/52/80 70/73/111 69/72/110 49/51/78
f 51/53/82 71/74/112 70/73/111 50/52/80
f 52/54/84 72/75/113 71/74/112 51/53/82
f 53/55/86 73/76/114 72/75/113 52/54/84
f 54/56/88 74/77/115 73/76/114 53/55/86
f 55/57/90 75/78/116 74/77/115 54/56/88
f 56/58/92 76/79/117 75/78/116 55/57/90
f 57/59/94 77/80/118 76/79/117 56/58/92
f 58/60/96 78/81/119 77/80/118 57/59/94
f 59/61/98 79/82/120 78/81/119 58/60/96
f 60/62/100 80/83/121 79/82/120 59/61/98
f 41/63/63 61/84/103 80/83/121 60/62/100
f 62/65/102 82/105/122 61/64/103
f 63/66/104 82/106/122 62/65/102
f 64/67/105 82/107/122 63/66/104
f 65/68/106 82/108/122 64/67/105
f 66/69/107 82/109/122 65/68/106
f 67/70/108 82/110/122 66/69/107
f 68/71/109 82/111/122 67/70/108
f 69/72/110 82/112/122 68/71/109
f 70/73/111 82/113/122 69/72/110
f 71/74/112 82/114/122 70/73/111
f 72/75/113 82/115/122 71/74/112
f 73/76/114 82/116/122 72/75/113
f 74/77/115 82/117/122 73/76/114
f 75/78/116 82/118/122 74/77/115
f 76/79/117 82/119/122 75/78/116
f 77/80/118 82/120/122 76/79/117
f 78/81/119 82/121/122 77/80/118
f 79/82/120 82/122/122 78/81/119
f 80/83/121 82/123/122 79/82/120
f 61/84/103 82/124/122 80/83/121
f 84/147/43 83/148/64 121/149/101 122/205/61
f 83/150/64 84/126/43 86/151/42 85/152/65
f 85/153/65 86/151/42 88/154/44 87/155/67
f 87/156/67 88/154/44 90/157/45 89/158/69
f 89/159/69 90/157/45 92/160/46 91/161/71
f 91/162/71 92/160/46 94/163/47 93/164/73
f 93/165/73 94/163/47 96/166/48 95/167/75
f 95/168/75 96/166/48 98/169/49 97/170/77
f 97/171/77 98/169/49 100/172/50 99/173/79
f 99/174/79 100/172/50 102/175/51 101/176/81
f 101/177/81 102/175/51 104/178/52 103/179/83
f 103/180/83 104/178/52 106/181/53 105/182/85
f 105/183/85 106/181/53 108/184/54 107/185/87
f 107/186/87 108/184/54 110/187/55 109/188/89
f 109/189/89 110/187/55 112/190/56 111/191/91
f 111/192/91 112/190/56 114/193/57 113/194/93
f 113/195/93 114/193/57 116/196/58 115/197/95
f 115/198/95 116/196/58 118/199/59 117/200/97
f 117/201/97 118/199/59 120/202/60 119/203/99
f 119/204/99 120/202/60 122/205/61 121/206/101
