# This file uses centimeters as units for non-parametric coordinates.

v 0.000000 0.000080 -0.200938
v -0.200938 0.000080 -0.000000
v -0.000000 0.000080 0.200938
v 0.200938 0.000080 0.000000
v 0.000000 0.201018 0.000000
v 0.000000 -0.201018 0.000000
vt 0.250000 0.500000
vt 0.375000 0.500000
vt 0.500000 0.500000
vt 0.625000 0.500000
vt 0.750000 0.500000
vt 0.500000 1.000000
vt 0.250000 0.500000
vt 0.375000 0.500000
vt 0.500000 1.000000
vt 0.500000 0.500000
vt 0.625000 0.500000
vt 0.750000 0.500000
vn -0.577350 0.577350 -0.577350
vn -0.577350 0.577350 -0.577350
vn -0.577350 0.577350 -0.577350
vn -0.577350 0.577350 0.577350
vn -0.577350 0.577350 0.577350
vn -0.577350 0.577350 0.577350
vn 0.577350 0.577350 0.577350
vn 0.577350 0.577350 0.577350
vn 0.577350 0.577350 0.577350
vn 0.577350 0.577350 -0.577350
vn 0.577350 0.577350 -0.577350
vn 0.577350 0.577350 -0.577350
vn -0.577504 -0.577042 -0.577504
vn -0.577504 -0.577042 -0.577504
vn -0.577504 -0.577042 -0.577504
vn -0.577504 -0.577042 0.577504
vn -0.577504 -0.577042 0.577504
vn -0.577504 -0.577042 0.577504
vn 0.577504 -0.577042 0.577504
vn 0.577504 -0.577042 0.577504
vn 0.577504 -0.577042 0.577504
vn 0.577504 -0.577042 -0.577504
vn 0.577504 -0.577042 -0.577504
vn 0.577504 -0.577042 -0.577504
f 1/1/1 2/2/2 5/6/3
f 2/2/4 3/3/5 5/6/6
f 3/3/7 4/4/8 5/6/9
f 4/4/10 1/5/11 5/6/12
f 1/7/13 6/9/14 2/8/15
f 2/8/16 6/9/17 3/10/18
f 3/10/19 6/9/20 4/11/21
f 4/11/22 6/9/23 1/12/24
