# This file uses centimeters as units for non-parametric coordinates.

v -500.000000 -500.000000 500.000000
v 500.000000 -500.000000 500.000000
v -500.000000 500.000000 500.000000
v 500.000000 500.000000 500.000000
v -500.000000 500.000000 -500.000000
v 500.000000 500.000000 -500.000000
v -500.000000 -500.000000 -500.000000
v 500.000000 -500.000000 -500.000000
vt 0.499939 0.335499
vt 0.747720 0.335499
vt 0.747720 0.664426
vt 0.499939 0.664426
vt 0.252158 0.335499
vt 0.499939 0.664426
vt 0.252158 0.664426
vt 0.004376 0.664426
vt 0.004376 0.335499
vt 0.252158 0.993353
vt 0.252158 0.664426
vt 0.995502 0.664426
vt 0.252158 0.006572
vt 0.499939 0.006572
vt 0.995502 0.335499
vt 0.499939 0.993353
vn -0.577350 -0.577350 0.577350
vn 0.577350 -0.577350 0.577350
vn 0.577350 0.577350 0.577350
vn -0.577350 0.577350 0.577350
vn -0.577350 0.577350 0.577350
vn 0.577350 0.577350 0.577350
vn 0.577350 0.577350 -0.577350
vn -0.577350 0.577350 -0.577350
vn -0.577350 0.577350 -0.577350
vn 0.577350 0.577350 -0.577350
vn 0.577350 -0.577350 -0.577350
vn -0.577350 -0.577350 -0.577350
vn -0.577350 -0.577350 -0.577350
vn 0.577350 -0.577350 -0.577350
vn 0.577350 -0.577350 0.577350
vn -0.577350 -0.577350 0.577350
vn 0.577350 -0.577350 0.577350
vn 0.577350 -0.577350 -0.577350
vn 0.577350 0.577350 -0.577350
vn 0.577350 0.577350 0.577350
vn -0.577350 -0.577350 -0.577350
vn -0.577350 -0.577350 0.577350
vn -0.577350 0.577350 0.577350
vn -0.577350 0.577350 -0.577350
f 1/1/1 2/2/2 4/3/3 3/4/4
f 3/6/5 4/16/6 6/10/7 5/11/8
f 5/7/9 6/8/10 8/9/11 7/5/12
f 7/5/13 8/13/14 2/14/15 1/1/16
f 2/2/17 8/15/18 6/12/19 4/3/20
f 7/5/21 1/1/22 3/4/23 5/7/24
