# This file uses centimeters as units for non-parametric coordinates.

v 0.000000 92.971184 -92.971184
v 0.000000 0.000000 -127.771348
v -44.775404 87.199944 -87.199944
v 44.775404 87.199944 -87.199944
v 0.000000 50.779563 -119.040763
v 50.779563 0.000000 -119.040763
v 0.000000 -50.779563 -119.040763
v -50.779563 0.000000 -119.040763
v 47.991143 47.991143 -110.956272
v 47.991143 -47.991143 -110.956272
v -47.991143 -47.991143 -110.956272
v -47.991143 47.991143 -110.956272
v -63.183604 81.257174 -81.257174
v -23.183663 91.346762 -91.346762
v 23.183663 91.346762 -91.346762
v 63.183604 81.257174 -81.257174
v 0.000000 25.926640 -125.583583
v 0.000000 73.485649 -108.163040
v 25.926640 0.000000 -125.583583
v 73.485649 0.000000 -108.163040
v 0.000000 -25.926640 -125.583583
v 0.000000 -73.485649 -108.163040
v -25.926640 0.000000 -125.583583
v -73.485649 0.000000 -108.163040
v 45.882825 69.188969 -101.074626
v 69.188969 45.882825 -101.074626
v 49.885497 24.555001 -116.987516
v 24.555001 49.885497 -116.987516
v 69.188969 -45.882825 -101.074626
v 45.882825 -69.188969 -101.074626
v 24.555001 -49.885497 -116.987516
v 49.885497 -24.555001 -116.987516
v -45.882825 -69.188969 -101.074626
v -69.188969 -45.882825 -101.074626
v -49.885497 -24.555001 -116.987516
v -24.555001 -49.885497 -116.987516
v -69.188969 45.882825 -101.074626
v -45.882825 69.188969 -101.074626
v -24.555001 49.885497 -116.987516
v -49.885497 24.555001 -116.987516
v 65.327733 65.327733 -92.952225
v 72.195860 23.640774 -106.285537
v 25.469226 25.469226 -123.428329
v 23.640774 72.195860 -106.285537
v 65.327733 -65.327733 -92.952225
v 23.640774 -72.195860 -106.285537
v 25.469226 -25.469226 -123.428329
v 72.195860 -23.640774 -106.285537
v -65.327733 -65.327733 -92.952225
v -72.195860 -23.640774 -106.285537
v -25.469226 -25.469226 -123.428329
v -23.640774 -72.195860 -106.285537
v -65.327733 65.327733 -92.952225
v -23.640774 72.195860 -106.285537
v -25.469226 25.469226 -123.428329
v -72.195860 23.640774 -106.285537
v 75.464867 75.464867 -75.464867
v 81.257174 63.183604 -81.257174
v 87.199944 44.775404 -87.199944
v 91.346762 23.183663 -91.346762
v 92.971184 0.000000 -92.971184
v 91.346762 -23.183663 -91.346762
v 87.199944 -44.775404 -87.199944
v 81.257174 -63.183604 -81.257174
v 75.464867 -75.464867 -75.464867
v 63.183604 -81.257174 -81.257174
v 44.775404 -87.199944 -87.199944
v 23.183663 -91.346762 -91.346762
v 0.000000 -92.971184 -92.971184
v -23.183663 -91.346762 -91.346762
v -44.775404 -87.199944 -87.199944
v -63.183604 -81.257174 -81.257174
v -75.464867 -75.464867 -75.464867
v -81.257174 -63.183604 -81.257174
v -87.199944 -44.775404 -87.199944
v -91.346762 -23.183663 -91.346762
v -92.971184 0.000000 -92.971184
v -91.346762 23.183663 -91.346762
v -87.199944 44.775404 -87.199944
v -81.257174 63.183604 -81.257174
v -75.464867 75.464867 -75.464867
vt 0.873506 0.000000
vt 1.000000 0.000000
vt 1.000000 0.126494
vt 0.873506 0.126494
vt 1.000000 0.250996
vt 0.873506 0.250996
vt 0.749004 0.250996
vt 0.749004 0.126494
vt 0.749004 0.000000
vt 1.000000 0.375498
vt 1.000000 0.500000
vt 0.873506 0.500000
vt 0.873506 0.375498
vt 0.749004 0.500000
vt 0.749004 0.375498
vt 0.624502 0.500000
vt 0.500000 0.500000
vt 0.500000 0.375498
vt 0.624502 0.375498
vt 0.500000 0.250996
vt 0.624502 0.250996
vt 0.500000 0.126494
vt 0.500000 0.000000
vt 0.624502 0.000000
vt 0.624502 0.126494
vt 1.000000 0.873506
vt 1.000000 1.000000
vt 0.873506 1.000000
vt 0.873506 0.873506
vt 0.749004 1.000000
vt 0.749004 0.873506
vt 0.749004 0.749004
vt 0.873506 0.749004
vt 1.000000 0.749004
vt 0.624502 1.000000
vt 0.500000 1.000000
vt 0.500000 0.873506
vt 0.624502 0.873506
vt 0.500000 0.749004
vt 0.624502 0.749004
vt 0.500000 0.624502
vt 0.624502 0.624502
vt 0.749004 0.624502
vt 1.000000 0.624502
vt 0.873506 0.624502
vt 0.126494 1.000000
vt 0.000000 1.000000
vt 0.000000 0.873506
vt 0.126494 0.873506
vt 0.000000 0.749004
vt 0.126494 0.749004
vt 0.250996 0.749004
vt 0.250996 0.873506
vt 0.250996 1.000000
vt 0.000000 0.624502
vt 0.000000 0.500000
vt 0.126494 0.500000
vt 0.126494 0.624502
vt 0.250996 0.500000
vt 0.250996 0.624502
vt 0.375498 0.500000
vt 0.375498 0.624502
vt 0.375498 0.749004
vt 0.375498 1.000000
vt 0.375498 0.873506
vt 0.000000 0.126494
vt 0.000000 0.000000
vt 0.126494 0.000000
vt 0.126494 0.126494
vt 0.250996 0.000000
vt 0.250996 0.126494
vt 0.250996 0.250996
vt 0.126494 0.250996
vt 0.000000 0.250996
vt 0.375498 0.000000
vt 0.375498 0.126494
vt 0.375498 0.250996
vt 0.375498 0.375498
vt 0.250996 0.375498
vt 0.000000 0.375498
vt 0.126494 0.375498
vn 0.459626 0.565672 -0.684660
vn 0.546843 0.546844 -0.633975
vn 0.565672 0.459626 -0.684660
vn 0.479663 0.479663 -0.734742
vn 0.589678 0.325214 -0.739267
vn 0.504570 0.330991 -0.797405
vn 0.337959 0.337959 -0.878389
vn 0.330991 0.504570 -0.797405
vn 0.325215 0.589677 -0.739267
vn 0.608201 0.173500 -0.774589
vn 0.615670 0.000000 -0.788004
vn 0.525865 0.000000 -0.850568
vn 0.519728 0.174230 -0.836377
vn 0.344367 0.000000 -0.938835
vn 0.342552 0.172616 -0.923505
vn 0.169789 0.000000 -0.985480
vn 0.000000 0.000000 -1.000000
vn 0.000000 0.169789 -0.985480
vn 0.170583 0.170583 -0.970465
vn 0.000000 0.344367 -0.938835
vn 0.172616 0.342552 -0.923505
vn 0.000000 0.525865 -0.850568
vn 0.000000 0.615671 -0.788004
vn 0.173500 0.608201 -0.774589
vn 0.174230 0.519728 -0.836377
vn 0.565672 -0.459626 -0.684660
vn 0.546843 -0.546843 -0.633976
vn 0.459625 -0.565672 -0.684660
vn 0.479663 -0.479664 -0.734742
vn 0.325214 -0.589677 -0.739267
vn 0.330991 -0.504570 -0.797405
vn 0.337959 -0.337959 -0.878389
vn 0.504570 -0.330991 -0.797405
vn 0.589677 -0.325214 -0.739267
vn 0.173500 -0.608201 -0.774589
vn 0.000000 -0.615671 -0.788004
vn 0.000000 -0.525865 -0.850568
vn 0.174230 -0.519728 -0.836377
vn 0.000000 -0.344367 -0.938835
vn 0.172616 -0.342552 -0.923505
vn 0.000000 -0.169789 -0.985480
vn 0.170583 -0.170583 -0.970465
vn 0.342552 -0.172616 -0.923505
vn 0.608201 -0.173500 -0.774590
vn 0.519728 -0.174230 -0.836377
vn -0.459626 -0.565672 -0.684660
vn -0.546843 -0.546844 -0.633975
vn -0.565672 -0.459626 -0.684660
vn -0.479663 -0.479663 -0.734742
vn -0.589678 -0.325214 -0.739267
vn -0.504570 -0.330991 -0.797405
vn -0.337959 -0.337959 -0.878389
vn -0.330991 -0.504570 -0.797405
vn -0.325215 -0.589677 -0.739267
vn -0.608201 -0.173500 -0.774589
vn -0.615670 0.000000 -0.788004
vn -0.525865 0.000000 -0.850568
vn -0.519728 -0.174230 -0.836377
vn -0.344367 0.000000 -0.938835
vn -0.342552 -0.172616 -0.923505
vn -0.169789 0.000000 -0.985480
vn -0.170583 -0.170583 -0.970465
vn -0.172616 -0.342552 -0.923505
vn -0.173500 -0.608201 -0.774589
vn -0.174230 -0.519728 -0.836377
vn -0.565672 0.459626 -0.684660
vn -0.546843 0.546843 -0.633976
vn -0.459626 0.565672 -0.684660
vn -0.479663 0.479663 -0.734742
vn -0.325214 0.589677 -0.739267
vn -0.330991 0.504570 -0.797405
vn -0.337959 0.337959 -0.878389
vn -0.504570 0.330991 -0.797405
vn -0.589677 0.325214 -0.739267
vn -0.173500 0.608201 -0.774590
vn -0.174230 0.519728 -0.836377
vn -0.172616 0.342552 -0.923505
vn -0.170583 0.170583 -0.970465
vn -0.342552 0.172616 -0.923505
vn -0.608201 0.173500 -0.774590
vn -0.519728 0.174230 -0.836377
f 16/1/1 57/2/2 58/3/3 41/4/4
f 58/3/3 59/5/5 26/6/6 41/4/4
f 26/6/6 9/7/7 25/8/8 41/4/4
f 25/8/8 4/9/9 16/1/1 41/4/4
f 60/10/10 61/11/11 20/12/12 42/13/13
f 20/12/12 6/14/14 27/15/15 42/13/13
f 27/15/15 9/7/7 26/6/6 42/13/13
f 26/6/6 59/5/5 60/10/10 42/13/13
f 19/16/16 2/17/17 17/18/18 43/19/19
f 17/18/18 5/20/20 28/21/21 43/19/19
f 28/21/21 9/7/7 27/15/15 43/19/19
f 27/15/15 6/14/14 19/16/16 43/19/19
f 18/22/22 1/23/23 15/24/24 44/25/25
f 15/24/24 4/9/9 25/8/8 44/25/25
f 25/8/8 9/7/7 28/21/21 44/25/25
f 28/21/21 5/20/20 18/22/22 44/25/25
f 64/26/26 65/27/27 66/28/28 45/29/29
f 66/28/28 67/30/30 30/31/31 45/29/29
f 30/31/31 10/32/32 29/33/33 45/29/29
f 29/33/33 63/34/34 64/26/26 45/29/29
f 68/35/35 69/36/36 22/37/37 46/38/38
f 22/37/37 7/39/39 31/40/40 46/38/38
f 31/40/40 10/32/32 30/31/31 46/38/38
f 30/31/31 67/30/30 68/35/35 46/38/38
f 21/41/41 2/17/17 19/16/16 47/42/42
f 19/16/16 6/14/14 32/43/43 47/42/42
f 32/43/43 10/32/32 31/40/40 47/42/42
f 31/40/40 7/39/39 21/41/41 47/42/42
f 20/12/12 61/11/11 62/44/44 48/45/45
f 62/44/44 63/34/34 29/33/33 48/45/45
f 29/33/33 10/32/32 32/43/43 48/45/45
f 32/43/43 6/14/14 20/12/12 48/45/45
f 72/46/46 73/47/47 74/48/48 49/49/49
f 74/48/48 75/50/50 34/51/51 49/49/49
f 34/51/51 11/52/52 33/53/53 49/49/49
f 33/53/53 71/54/54 72/46/46 49/49/49
f 76/55/55 77/56/56 24/57/57 50/58/58
f 24/57/57 8/59/59 35/60/60 50/58/58
f 35/60/60 11/52/52 34/51/51 50/58/58
f 34/51/51 75/50/50 76/55/55 50/58/58
f 23/61/61 2/17/17 21/41/41 51/62/62
f 21/41/41 7/39/39 36/63/63 51/62/62
f 36/63/63 11/52/52 35/60/60 51/62/62
f 35/60/60 8/59/59 23/61/61 51/62/62
f 22/37/37 69/36/36 70/64/64 52/65/65
f 70/64/64 71/54/54 33/53/53 52/65/65
f 33/53/53 11/52/52 36/63/63 52/65/65
f 36/63/63 7/39/39 22/37/37 52/65/65
f 80/66/66 81/67/67 13/68/68 53/69/69
f 13/68/68 3/70/70 38/71/71 53/69/69
f 38/71/71 12/72/72 37/73/73 53/69/69
f 37/73/73 79/74/74 80/66/66 53/69/69
f 14/75/75 1/23/23 18/22/22 54/76/76
f 18/22/22 5/20/20 39/77/77 54/76/76
f 39/77/77 12/72/72 38/71/71 54/76/76
f 38/71/71 3/70/70 14/75/75 54/76/76
f 17/18/18 2/17/17 23/61/61 55/78/78
f 23/61/61 8/59/59 40/79/79 55/78/78
f 40/79/79 12/72/72 39/77/77 55/78/78
f 39/77/77 5/20/20 17/18/18 55/78/78
f 24/57/57 77/56/56 78/80/80 56/81/81
f 78/80/80 79/74/74 37/73/73 56/81/81
f 37/73/73 12/72/72 40/79/79 56/81/81
f 40/79/79 8/59/59 24/57/57 56/81/81
