# This file uses centimeters as units for non-parametric coordinates.

v -75.464867 75.464867 -75.464867
v -75.464867 -75.464867 -75.464867
v -75.464867 -75.464867 75.464867
v -75.464867 75.464867 75.464867
v -92.971184 -0.000000 -92.971184
v -92.971184 -92.971184 0.000000
v -92.971184 0.000000 92.971184
v -92.971184 92.971184 -0.000000
v -127.771348 0.000000 0.000000
v -87.199944 44.775404 -87.199944
v -87.199944 -44.775404 -87.199944
v -87.199944 -87.199944 -44.775404
v -87.199944 -87.199944 44.775404
v -87.199944 -44.775404 87.199944
v -87.199944 44.775404 87.199944
v -87.199944 87.199944 44.775404
v -87.199944 87.199944 -44.775404
v -119.040763 50.779563 -0.000000
v -119.040763 -0.000000 -50.779563
v -119.040763 -50.779563 0.000000
v -119.040763 0.000000 50.779563
v -110.956272 47.991143 -47.991143
v -110.956272 -47.991143 -47.991143
v -110.956272 -47.991143 47.991143
v -110.956272 47.991143 47.991143
v -81.257174 63.183604 -81.257174
v -91.346762 23.183663 -91.346762
v -91.346762 -23.183663 -91.346762
v -81.257174 -63.183604 -81.257174
v -81.257174 -81.257174 -63.183604
v -91.346762 -91.346762 -23.183663
v -91.346762 -91.346762 23.183663
v -81.257174 -81.257174 63.183604
v -81.257174 -63.183604 81.257174
v -91.346762 -23.183663 91.346762
v -91.346762 23.183663 91.346762
v -81.257174 63.183604 81.257174
v -81.257174 81.257174 63.183604
v -91.346762 91.346762 23.183663
v -91.346762 91.346762 -23.183663
v -81.257174 81.257174 -63.183604
v -125.583583 25.926640 -0.000000
v -108.163040 73.485649 -0.000000
v -125.583583 -0.000000 -25.926640
v -108.163040 -0.000000 -73.485649
v -125.583583 -25.926640 0.000000
v -108.163040 -73.485649 0.000000
v -125.583583 0.000000 25.926640
v -108.163040 0.000000 73.485649
v -101.074626 69.188969 -45.882825
v -101.074626 45.882825 -69.188969
v -116.987516 24.555001 -49.885497
v -116.987516 49.885497 -24.555001
v -101.074626 -45.882825 -69.188969
v -101.074626 -69.188969 -45.882825
v -116.987516 -49.885497 -24.555001
v -116.987516 -24.555001 -49.885497
v -101.074626 -69.188969 45.882825
v -101.074626 -45.882825 69.188969
v -116.987516 -24.555001 49.885497
v -116.987516 -49.885497 24.555001
v -101.074626 45.882825 69.188969
v -101.074626 69.188969 45.882825
v -116.987516 49.885497 24.555001
v -116.987516 24.555001 49.885497
v -92.952225 65.327733 -65.327733
v -106.285537 23.640774 -72.195860
v -123.428329 25.469226 -25.469226
v -106.285537 72.195860 -23.640774
v -92.952225 -65.327733 -65.327733
v -106.285537 -72.195860 -23.640774
v -123.428329 -25.469226 -25.469226
v -106.285537 -23.640774 -72.195860
v -92.952225 -65.327733 65.327733
v -106.285537 -23.640774 72.195860
v -123.428329 -25.469226 25.469226
v -106.285537 -72.195860 23.640774
v -92.952225 65.327733 65.327733
v -106.285537 72.195860 23.640774
v -123.428329 25.469226 25.469226
v -106.285537 23.640774 72.195860
vt 0.873506 0.000000
vt 1.000000 0.000000
vt 1.000000 0.126494
vt 0.873506 0.126494
vt 1.000000 0.250996
vt 0.873506 0.250996
vt 0.749004 0.250996
vt 0.749004 0.126494
vt 0.749004 0.000000
vt 1.000000 0.375498
vt 1.000000 0.500000
vt 0.873506 0.500000
vt 0.873506 0.375498
vt 0.749004 0.500000
vt 0.749004 0.375498
vt 0.624502 0.500000
vt 0.500000 0.500000
vt 0.500000 0.375498
vt 0.624502 0.375498
vt 0.500000 0.250996
vt 0.624502 0.250996
vt 0.500000 0.126494
vt 0.500000 0.000000
vt 0.624502 0.000000
vt 0.624502 0.126494
vt 1.000000 0.873506
vt 1.000000 1.000000
vt 0.873506 1.000000
vt 0.873506 0.873506
vt 0.749004 1.000000
vt 0.749004 0.873506
vt 0.749004 0.749004
vt 0.873506 0.749004
vt 1.000000 0.749004
vt 0.624502 1.000000
vt 0.500000 1.000000
vt 0.500000 0.873506
vt 0.624502 0.873506
vt 0.500000 0.749004
vt 0.624502 0.749004
vt 0.500000 0.624502
vt 0.624502 0.624502
vt 0.749004 0.624502
vt 1.000000 0.624502
vt 0.873506 0.624502
vt 0.126494 1.000000
vt 0.000000 1.000000
vt 0.000000 0.873506
vt 0.126494 0.873506
vt 0.000000 0.749004
vt 0.126494 0.749004
vt 0.250996 0.749004
vt 0.250996 0.873506
vt 0.250996 1.000000
vt 0.000000 0.624502
vt 0.000000 0.500000
vt 0.126494 0.500000
vt 0.126494 0.624502
vt 0.250996 0.500000
vt 0.250996 0.624502
vt 0.375498 0.500000
vt 0.375498 0.624502
vt 0.375498 0.749004
vt 0.375498 1.000000
vt 0.375498 0.873506
vt 0.000000 0.126494
vt 0.000000 0.000000
vt 0.126494 0.000000
vt 0.126494 0.126494
vt 0.250996 0.000000
vt 0.250996 0.126494
vt 0.250996 0.250996
vt 0.126494 0.250996
vt 0.000000 0.250996
vt 0.375498 0.000000
vt 0.375498 0.126494
vt 0.375498 0.250996
vt 0.375498 0.375498
vt 0.250996 0.375498
vt 0.000000 0.375498
vt 0.126494 0.375498
vn -0.684660 0.565672 -0.459626
vn -0.633976 0.546843 -0.546844
vn -0.684660 0.459626 -0.565672
vn -0.734742 0.479664 -0.479663
vn -0.739267 0.325215 -0.589677
vn -0.797405 0.330991 -0.504570
vn -0.878389 0.337959 -0.337959
vn -0.797405 0.504570 -0.330991
vn -0.739267 0.589677 -0.325214
vn -0.774590 0.173500 -0.608201
vn -0.788004 -0.000000 -0.615671
vn -0.850568 -0.000000 -0.525865
vn -0.836377 0.174230 -0.519728
vn -0.938835 -0.000000 -0.344367
vn -0.923505 0.172616 -0.342552
vn -0.985480 -0.000000 -0.169789
vn -1.000000 0.000000 0.000000
vn -0.985480 0.169789 -0.000000
vn -0.970465 0.170583 -0.170583
vn -0.938835 0.344367 -0.000000
vn -0.923505 0.342552 -0.172616
vn -0.850568 0.525865 -0.000000
vn -0.788004 0.615670 -0.000000
vn -0.774590 0.608201 -0.173500
vn -0.836377 0.519728 -0.174230
vn -0.684660 -0.459626 -0.565672
vn -0.633975 -0.546843 -0.546844
vn -0.684660 -0.565672 -0.459626
vn -0.734742 -0.479663 -0.479664
vn -0.739267 -0.589677 -0.325214
vn -0.797405 -0.504570 -0.330991
vn -0.878389 -0.337959 -0.337959
vn -0.797405 -0.330991 -0.504570
vn -0.739267 -0.325215 -0.589678
vn -0.774590 -0.608201 -0.173500
vn -0.788004 -0.615670 0.000000
vn -0.850568 -0.525865 0.000000
vn -0.836377 -0.519728 -0.174229
vn -0.938835 -0.344367 0.000000
vn -0.923505 -0.342552 -0.172616
vn -0.985480 -0.169789 0.000000
vn -0.970465 -0.170583 -0.170583
vn -0.923505 -0.172616 -0.342552
vn -0.774589 -0.173500 -0.608201
vn -0.836377 -0.174230 -0.519728
vn -0.684660 -0.565672 0.459626
vn -0.633976 -0.546843 0.546844
vn -0.684660 -0.459626 0.565672
vn -0.734742 -0.479664 0.479663
vn -0.739267 -0.325215 0.589677
vn -0.797405 -0.330991 0.504570
vn -0.878389 -0.337959 0.337959
vn -0.797405 -0.504570 0.330991
vn -0.739267 -0.589677 0.325214
vn -0.774590 -0.173500 0.608201
vn -0.788004 0.000000 0.615671
vn -0.850568 0.000000 0.525865
vn -0.836377 -0.174230 0.519728
vn -0.938835 0.000000 0.344367
vn -0.923505 -0.172616 0.342552
vn -0.985480 0.000000 0.169789
vn -0.970465 -0.170583 0.170583
vn -0.923505 -0.342552 0.172616
vn -0.774590 -0.608201 0.173500
vn -0.836377 -0.519728 0.174230
vn -0.684660 0.459626 0.565672
vn -0.633975 0.546843 0.546844
vn -0.684660 0.565672 0.459626
vn -0.734742 0.479663 0.479664
vn -0.739267 0.589677 0.325214
vn -0.797405 0.504570 0.330991
vn -0.878389 0.337959 0.337959
vn -0.797405 0.330991 0.504570
vn -0.739267 0.325215 0.589678
vn -0.774590 0.608201 0.173500
vn -0.836377 0.519728 0.174230
vn -0.923505 0.342552 0.172616
vn -0.970465 0.170583 0.170583
vn -0.923505 0.172616 0.342552
vn -0.774589 0.173500 0.608201
vn -0.836377 0.174230 0.519728
f 41/1/1 1/2/2 26/3/3 66/4/4
f 26/3/3 10/5/5 51/6/6 66/4/4
f 51/6/6 22/7/7 50/8/8 66/4/4
f 50/8/8 17/9/9 41/1/1 66/4/4
f 27/10/10 5/11/11 45/12/12 67/13/13
f 45/12/12 19/14/14 52/15/15 67/13/13
f 52/15/15 22/7/7 51/6/6 67/13/13
f 51/6/6 10/5/5 27/10/10 67/13/13
f 44/16/16 9/17/17 42/18/18 68/19/19
f 42/18/18 18/20/20 53/21/21 68/19/19
f 53/21/21 22/7/7 52/15/15 68/19/19
f 52/15/15 19/14/14 44/16/16 68/19/19
f 43/22/22 8/23/23 40/24/24 69/25/25
f 40/24/24 17/9/9 50/8/8 69/25/25
f 50/8/8 22/7/7 53/21/21 69/25/25
f 53/21/21 18/20/20 43/22/22 69/25/25
f 29/26/26 2/27/27 30/28/28 70/29/29
f 30/28/28 12/30/30 55/31/31 70/29/29
f 55/31/31 23/32/32 54/33/33 70/29/29
f 54/33/33 11/34/34 29/26/26 70/29/29
f 31/35/35 6/36/36 47/37/37 71/38/38
f 47/37/37 20/39/39 56/40/40 71/38/38
f 56/40/40 23/32/32 55/31/31 71/38/38
f 55/31/31 12/30/30 31/35/35 71/38/38
f 46/41/41 9/17/17 44/16/16 72/42/42
f 44/16/16 19/14/14 57/43/43 72/42/42
f 57/43/43 23/32/32 56/40/40 72/42/42
f 56/40/40 20/39/39 46/41/41 72/42/42
f 45/12/12 5/11/11 28/44/44 73/45/45
f 28/44/44 11/34/34 54/33/33 73/45/45
f 54/33/33 23/32/32 57/43/43 73/45/45
f 57/43/43 19/14/14 45/12/12 73/45/45
f 33/46/46 3/47/47 34/48/48 74/49/49
f 34/48/48 14/50/50 59/51/51 74/49/49
f 59/51/51 24/52/52 58/53/53 74/49/49
f 58/53/53 13/54/54 33/46/46 74/49/49
f 35/55/55 7/56/56 49/57/57 75/58/58
f 49/57/57 21/59/59 60/60/60 75/58/58
f 60/60/60 24/52/52 59/51/51 75/58/58
f 59/51/51 14/50/50 35/55/55 75/58/58
f 48/61/61 9/17/17 46/41/41 76/62/62
f 46/41/41 20/39/39 61/63/63 76/62/62
f 61/63/63 24/52/52 60/60/60 76/62/62
f 60/60/60 21/59/59 48/61/61 76/62/62
f 47/37/37 6/36/36 32/64/64 77/65/65
f 32/64/64 13/54/54 58/53/53 77/65/65
f 58/53/53 24/52/52 61/63/63 77/65/65
f 61/63/63 20/39/39 47/37/37 77/65/65
f 37/66/66 4/67/67 38/68/68 78/69/69
f 38/68/68 16/70/70 63/71/71 78/69/69
f 63/71/71 25/72/72 62/73/73 78/69/69
f 62/73/73 15/74/74 37/66/66 78/69/69
f 39/75/75 8/23/23 43/22/22 79/76/76
f 43/22/22 18/20/20 64/77/77 79/76/76
f 64/77/77 25/72/72 63/71/71 79/76/76
f 63/71/71 16/70/70 39/75/75 79/76/76
f 42/18/18 9/17/17 48/61/61 80/78/78
f 48/61/61 21/59/59 65/79/79 80/78/78
f 65/79/79 25/72/72 64/77/77 80/78/78
f 64/77/77 18/20/20 42/18/18 80/78/78
f 49/57/57 7/56/56 36/80/80 81/81/81
f 36/80/80 15/74/74 62/73/73 81/81/81
f 62/73/73 25/72/72 65/79/79 81/81/81
f 65/79/79 21/59/59 49/57/57 81/81/81
