# This file uses centimeters as units for non-parametric coordinates.

v 0.000000 0.000000 127.771348
v 0.000000 50.779563 119.040763
v -50.779563 0.000000 119.040763
v -0.000000 -50.779563 119.040763
v 50.779563 -0.000000 119.040763
v -47.991143 47.991143 110.956272
v -47.991143 -47.991143 110.956272
v 47.991143 -47.991143 110.956272
v 47.991143 47.991143 110.956272
v 0.000000 25.926640 125.583583
v 0.000000 73.485649 108.163040
v -25.926640 0.000000 125.583583
v -73.485649 0.000000 108.163040
v -0.000000 -25.926640 125.583583
v -0.000000 -73.485649 108.163040
v 25.926640 -0.000000 125.583583
v 73.485649 -0.000000 108.163040
v -45.882825 69.188969 101.074626
v -69.188969 45.882825 101.074626
v -49.885497 24.555001 116.987516
v -24.555001 49.885497 116.987516
v -69.188969 -45.882825 101.074626
v -45.882825 -69.188969 101.074626
v -24.555001 -49.885497 116.987516
v -49.885497 -24.555001 116.987516
v 45.882825 -69.188969 101.074626
v 69.188969 -45.882825 101.074626
v 49.885497 -24.555001 116.987516
v 24.555001 -49.885497 116.987516
v 69.188969 45.882825 101.074626
v 45.882825 69.188969 101.074626
v 24.555001 49.885497 116.987516
v 49.885497 24.555001 116.987516
v -65.327733 65.327733 92.952225
v -72.195860 23.640774 106.285537
v -25.469226 25.469226 123.428329
v -23.640774 72.195860 106.285537
v -65.327733 -65.327733 92.952225
v -23.640774 -72.195860 106.285537
v -25.469226 -25.469226 123.428329
v -72.195860 -23.640774 106.285537
v 65.327733 -65.327733 92.952225
v 72.195860 -23.640774 106.285537
v 25.469226 -25.469226 123.428329
v 23.640774 -72.195860 106.285537
v 65.327733 65.327733 92.952225
v 23.640774 72.195860 106.285537
v 25.469226 25.469226 123.428329
v 72.195860 23.640774 106.285537
v -63.183604 81.257174 81.257174
v -75.464867 75.464867 75.464867
v -81.257174 63.183604 81.257174
v -87.199944 44.775404 87.199944
v -91.346762 23.183663 91.346762
v -92.971184 0.000000 92.971184
v -91.346762 -23.183663 91.346762
v -87.199944 -44.775404 87.199944
v -81.257174 -63.183604 81.257174
v -75.464867 -75.464867 75.464867
v -63.183604 -81.257174 81.257174
v -44.775404 -87.199944 87.199944
v -23.183663 -91.346762 91.346762
v -0.000000 -92.971184 92.971184
v 23.183663 -91.346762 91.346762
v 44.775404 -87.199944 87.199944
v 63.183604 -81.257174 81.257174
v 75.464867 -75.464867 75.464867
v 81.257174 -63.183604 81.257174
v 87.199944 -44.775404 87.199944
v 91.346762 -23.183663 91.346762
v 92.971184 -0.000000 92.971184
v 91.346762 23.183663 91.346762
v 87.199944 44.775404 87.199944
v 81.257174 63.183604 81.257174
v 75.464867 75.464867 75.464867
v 63.183604 81.257174 81.257174
v 44.775404 87.199944 87.199944
v 23.183663 91.346762 91.346762
v 0.000000 92.971184 92.971184
v -23.183663 91.346762 91.346762
v -44.775404 87.199944 87.199944
vt 0.873506 0.000000
vt 1.000000 0.000000
vt 1.000000 0.126494
vt 0.873506 0.126494
vt 1.000000 0.250996
vt 0.873506 0.250996
vt 0.749004 0.250996
vt 0.749004 0.126494
vt 0.749004 0.000000
vt 1.000000 0.375498
vt 1.000000 0.500000
vt 0.873506 0.500000
vt 0.873506 0.375498
vt 0.749004 0.500000
vt 0.749004 0.375498
vt 0.624502 0.500000
vt 0.500000 0.500000
vt 0.500000 0.375498
vt 0.624502 0.375498
vt 0.500000 0.250996
vt 0.624502 0.250996
vt 0.500000 0.126494
vt 0.500000 0.000000
vt 0.624502 0.000000
vt 0.624502 0.126494
vt 1.000000 0.873506
vt 1.000000 1.000000
vt 0.873506 1.000000
vt 0.873506 0.873506
vt 0.749004 1.000000
vt 0.749004 0.873506
vt 0.749004 0.749004
vt 0.873506 0.749004
vt 1.000000 0.749004
vt 0.624502 1.000000
vt 0.500000 1.000000
vt 0.500000 0.873506
vt 0.624502 0.873506
vt 0.500000 0.749004
vt 0.624502 0.749004
vt 0.500000 0.624502
vt 0.624502 0.624502
vt 0.749004 0.624502
vt 1.000000 0.624502
vt 0.873506 0.624502
vt 0.126494 1.000000
vt 0.000000 1.000000
vt 0.000000 0.873506
vt 0.126494 0.873506
vt 0.000000 0.749004
vt 0.126494 0.749004
vt 0.250996 0.749004
vt 0.250996 0.873506
vt 0.250996 1.000000
vt 0.000000 0.624502
vt 0.000000 0.500000
vt 0.126494 0.500000
vt 0.126494 0.624502
vt 0.250996 0.500000
vt 0.250996 0.624502
vt 0.375498 0.500000
vt 0.375498 0.624502
vt 0.375498 0.749004
vt 0.375498 1.000000
vt 0.375498 0.873506
vt 0.000000 0.126494
vt 0.000000 0.000000
vt 0.126494 0.000000
vt 0.126494 0.126494
vt 0.250996 0.000000
vt 0.250996 0.126494
vt 0.250996 0.250996
vt 0.126494 0.250996
vt 0.000000 0.250996
vt 0.375498 0.000000
vt 0.375498 0.126494
vt 0.375498 0.250996
vt 0.375498 0.375498
vt 0.250996 0.375498
vt 0.000000 0.375498
vt 0.126494 0.375498
vn -0.459626 0.565672 0.684660
vn -0.546843 0.546844 0.633975
vn -0.565672 0.459626 0.684660
vn -0.479663 0.479663 0.734742
vn -0.589678 0.325214 0.739267
vn -0.504570 0.330991 0.797405
vn -0.337959 0.337959 0.878389
vn -0.330991 0.504570 0.797405
vn -0.325215 0.589677 0.739267
vn -0.608201 0.173500 0.774589
vn -0.615670 0.000000 0.788004
vn -0.525865 0.000000 0.850568
vn -0.519728 0.174230 0.836377
vn -0.344367 0.000000 0.938835
vn -0.342552 0.172616 0.923505
vn -0.169789 0.000000 0.985480
vn 0.000000 0.000000 1.000000
vn 0.000000 0.169789 0.985480
vn -0.170583 0.170583 0.970465
vn 0.000000 0.344367 0.938835
vn -0.172616 0.342552 0.923505
vn 0.000000 0.525865 0.850568
vn 0.000000 0.615671 0.788004
vn -0.173500 0.608201 0.774589
vn -0.174230 0.519728 0.836377
vn -0.565672 -0.459626 0.684660
vn -0.546843 -0.546843 0.633976
vn -0.459625 -0.565672 0.684660
vn -0.479663 -0.479664 0.734742
vn -0.325214 -0.589677 0.739267
vn -0.330991 -0.504570 0.797405
vn -0.337959 -0.337959 0.878389
vn -0.504570 -0.330991 0.797405
vn -0.589677 -0.325214 0.739267
vn -0.173500 -0.608201 0.774589
vn -0.000000 -0.615671 0.788004
vn -0.000000 -0.525865 0.850568
vn -0.174230 -0.519728 0.836377
vn -0.000000 -0.344367 0.938835
vn -0.172616 -0.342552 0.923505
vn -0.000000 -0.169789 0.985480
vn -0.170583 -0.170583 0.970465
vn -0.342552 -0.172616 0.923505
vn -0.608201 -0.173500 0.774590
vn -0.519728 -0.174230 0.836377
vn 0.459626 -0.565672 0.684660
vn 0.546843 -0.546844 0.633975
vn 0.565672 -0.459626 0.684660
vn 0.479663 -0.479663 0.734742
vn 0.589678 -0.325214 0.739267
vn 0.504570 -0.330991 0.797405
vn 0.337959 -0.337959 0.878389
vn 0.330991 -0.504570 0.797405
vn 0.325215 -0.589677 0.739267
vn 0.608201 -0.173500 0.774589
vn 0.615670 -0.000000 0.788004
vn 0.525865 -0.000000 0.850568
vn 0.519728 -0.174230 0.836377
vn 0.344367 -0.000000 0.938835
vn 0.342552 -0.172616 0.923505
vn 0.169789 -0.000000 0.985480
vn 0.170583 -0.170583 0.970465
vn 0.172616 -0.342552 0.923505
vn 0.173500 -0.608201 0.774589
vn 0.174230 -0.519728 0.836377
vn 0.565672 0.459626 0.684660
vn 0.546843 0.546843 0.633976
vn 0.459625 0.565672 0.684660
vn 0.479663 0.479664 0.734742
vn 0.325214 0.589677 0.739267
vn 0.330991 0.504570 0.797405
vn 0.337959 0.337959 0.878389
vn 0.504570 0.330991 0.797405
vn 0.589677 0.325214 0.739267
vn 0.173500 0.608201 0.774589
vn 0.174230 0.519728 0.836377
vn 0.172616 0.342552 0.923505
vn 0.170583 0.170583 0.970465
vn 0.342552 0.172616 0.923505
vn 0.608201 0.173500 0.774590
vn 0.519728 0.174230 0.836377
f 50/1/1 51/2/2 52/3/3 34/4/4
f 52/3/3 53/5/5 19/6/6 34/4/4
f 19/6/6 6/7/7 18/8/8 34/4/4
f 18/8/8 81/9/9 50/1/1 34/4/4
f 54/10/10 55/11/11 13/12/12 35/13/13
f 13/12/12 3/14/14 20/15/15 35/13/13
f 20/15/15 6/7/7 19/6/6 35/13/13
f 19/6/6 53/5/5 54/10/10 35/13/13
f 12/16/16 1/17/17 10/18/18 36/19/19
f 10/18/18 2/20/20 21/21/21 36/19/19
f 21/21/21 6/7/7 20/15/15 36/19/19
f 20/15/15 3/14/14 12/16/16 36/19/19
f 11/22/22 79/23/23 80/24/24 37/25/25
f 80/24/24 81/9/9 18/8/8 37/25/25
f 18/8/8 6/7/7 21/21/21 37/25/25
f 21/21/21 2/20/20 11/22/22 37/25/25
f 58/26/26 59/27/27 60/28/28 38/29/29
f 60/28/28 61/30/30 23/31/31 38/29/29
f 23/31/31 7/32/32 22/33/33 38/29/29
f 22/33/33 57/34/34 58/26/26 38/29/29
f 62/35/35 63/36/36 15/37/37 39/38/38
f 15/37/37 4/39/39 24/40/40 39/38/38
f 24/40/40 7/32/32 23/31/31 39/38/38
f 23/31/31 61/30/30 62/35/35 39/38/38
f 14/41/41 1/17/17 12/16/16 40/42/42
f 12/16/16 3/14/14 25/43/43 40/42/42
f 25/43/43 7/32/32 24/40/40 40/42/42
f 24/40/40 4/39/39 14/41/41 40/42/42
f 13/12/12 55/11/11 56/44/44 41/45/45
f 56/44/44 57/34/34 22/33/33 41/45/45
f 22/33/33 7/32/32 25/43/43 41/45/45
f 25/43/43 3/14/14 13/12/12 41/45/45
f 66/46/46 67/47/47 68/48/48 42/49/49
f 68/48/48 69/50/50 27/51/51 42/49/49
f 27/51/51 8/52/52 26/53/53 42/49/49
f 26/53/53 65/54/54 66/46/46 42/49/49
f 70/55/55 71/56/56 17/57/57 43/58/58
f 17/57/57 5/59/59 28/60/60 43/58/58
f 28/60/60 8/52/52 27/51/51 43/58/58
f 27/51/51 69/50/50 70/55/55 43/58/58
f 16/61/61 1/17/17 14/41/41 44/62/62
f 14/41/41 4/39/39 29/63/63 44/62/62
f 29/63/63 8/52/52 28/60/60 44/62/62
f 28/60/60 5/59/59 16/61/61 44/62/62
f 15/37/37 63/36/36 64/64/64 45/65/65
f 64/64/64 65/54/54 26/53/53 45/65/65
f 26/53/53 8/52/52 29/63/63 45/65/65
f 29/63/63 4/39/39 15/37/37 45/65/65
f 74/66/66 75/67/67 76/68/68 46/69/69
f 76/68/68 77/70/70 31/71/71 46/69/69
f 31/71/71 9/72/72 30/73/73 46/69/69
f 30/73/73 73/74/74 74/66/66 46/69/69
f 78/75/75 79/23/23 11/22/22 47/76/76
f 11/22/22 2/20/20 32/77/77 47/76/76
f 32/77/77 9/72/72 31/71/71 47/76/76
f 31/71/71 77/70/70 78/75/75 47/76/76
f 10/18/18 1/17/17 16/61/61 48/78/78
f 16/61/61 5/59/59 33/79/79 48/78/78
f 33/79/79 9/72/72 32/77/77 48/78/78
f 32/77/77 2/20/20 10/18/18 48/78/78
f 17/57/57 71/56/56 72/80/80 49/81/81
f 72/80/80 73/74/74 30/73/73 49/81/81
f 30/73/73 9/72/72 33/79/79 49/81/81
f 33/79/79 5/59/59 17/57/57 49/81/81
